<svg width="25" height="25" viewBox="0 0 25 25" fill="none" xmlns="http://www.w3.org/2000/svg">
<path d="M15.625 4.16634V2.08301V4.16634ZM15.625 4.16634V6.24967V4.16634ZM15.625 4.16634H10.9375H15.625ZM3.125 10.4163V19.7913C3.125 20.942 4.05774 21.8747 5.20833 21.8747H19.7917C20.9423 21.8747 21.875 20.942 21.875 19.7913V10.4163H3.125Z" fill="#2F2E41"/>
<path d="M15.625 4.16634V2.08301M15.625 4.16634V6.24967M15.625 4.16634H10.9375M3.125 10.4163V19.7913C3.125 20.942 4.05774 21.8747 5.20833 21.8747H19.7917C20.9423 21.8747 21.875 20.942 21.875 19.7913V10.4163H3.125Z" stroke="#2F2E41" stroke-width="1.8125" stroke-linecap="round" stroke-linejoin="round"/>
<path d="M3.125 10.417V6.25033C3.125 5.09973 4.05774 4.16699 5.20833 4.16699H7.29167" stroke="#2F2E41" stroke-width="1.8125" stroke-linecap="round" stroke-linejoin="round"/>
<path d="M7.29199 2.08301V6.24967" stroke="#2F2E41" stroke-width="1.8125" stroke-linecap="round" stroke-linejoin="round"/>
<path d="M21.8747 10.417V6.25033C21.8747 5.09973 20.942 4.16699 19.7913 4.16699H19.2705" stroke="#2F2E41" stroke-width="1.8125" stroke-linecap="round" stroke-linejoin="round"/>
</svg>
