<svg width="23" height="27" viewBox="0 0 23 27" fill="none" xmlns="http://www.w3.org/2000/svg">
<path fill-rule="evenodd" clip-rule="evenodd" d="M2.80263 11.2649C2.16862 10.6233 1.30873 10.2628 0.412109 10.2628V7.98201C0.412109 7.37709 0.649563 6.79695 1.07223 6.36921C1.4949 5.94147 2.06817 5.70117 2.66591 5.70117H20.6964C21.2941 5.70117 21.8674 5.94147 22.29 6.36921C22.7127 6.79695 22.9502 7.37709 22.9502 7.98201V10.2628C22.0535 10.2628 21.1936 10.6233 20.5596 11.2649C19.9256 11.9065 19.5695 12.7767 19.5695 13.6841C19.5695 14.5915 19.9256 15.4617 20.5596 16.1033C21.1936 16.7449 22.0535 17.1054 22.9502 17.1054V19.3862C22.9502 19.9911 22.7127 20.5713 22.29 20.999C21.8674 21.4267 21.2941 21.667 20.6964 21.667H2.66591C2.06817 21.667 1.4949 21.4267 1.07223 20.999C0.649563 20.5713 0.412109 19.9911 0.412109 19.3862V17.1054C1.30873 17.1054 2.16862 16.7449 2.80263 16.1033C3.43664 15.4617 3.79282 14.5915 3.79282 13.6841C3.79282 12.7767 3.43664 11.9065 2.80263 11.2649ZM13.3785 6.51187V5.94115H12.2371V6.51187V7.97074C12.2371 8.28595 12.4926 8.54147 12.8078 8.54147C13.123 8.54147 13.3785 8.28595 13.3785 7.97074V6.51187ZM12.8087 18.817C13.1239 18.8176 13.3789 19.0736 13.3783 19.3888L13.3757 20.8476L13.3746 21.4184L12.2332 21.4162L12.2342 20.8455L12.2369 19.3866C12.2375 19.0714 12.4935 18.8164 12.8087 18.817ZM13.3783 12.5439C13.3783 12.2287 13.1228 11.9732 12.8076 11.9732C12.4924 11.9732 12.2369 12.2287 12.2369 12.5439V14.8253C12.2369 15.1405 12.4924 15.396 12.8076 15.396C13.1228 15.396 13.3783 15.1405 13.3783 14.8253V12.5439Z" fill="#2F2E41"/>
</svg>
