<svg width="21" height="21" viewBox="0 0 21 21" fill="none" xmlns="http://www.w3.org/2000/svg">
<path fill-rule="evenodd" clip-rule="evenodd" d="M10.4998 20.9179C16.2528 20.9179 20.9165 16.2542 20.9165 10.5013C20.9165 4.7483 16.2528 0.0845947 10.4998 0.0845947C4.74683 0.0845947 0.0831299 4.7483 0.0831299 10.5013C0.0831299 16.2542 4.74683 20.9179 10.4998 20.9179ZM10.4996 3.46995C10.9311 3.46995 11.2808 3.81972 11.2808 4.25118V5.55324H14.6663C15.0978 5.55324 15.4476 5.90301 15.4476 6.33447C15.4476 6.76594 15.0978 7.11571 14.6663 7.11571H11.2808V9.7199H12.583C13.3427 9.7199 14.0714 10.0217 14.6086 10.5589C15.1458 11.0961 15.4476 11.8247 15.4476 12.5845C15.4476 13.3442 15.1458 14.0728 14.6086 14.61C14.0714 15.1472 13.3427 15.449 12.583 15.449H11.2808V16.7512C11.2808 17.1826 10.9311 17.5324 10.4996 17.5324C10.0681 17.5324 9.71836 17.1826 9.71836 16.7512V15.449H6.33301C5.90154 15.449 5.55177 15.0993 5.55177 14.6678C5.55177 14.2363 5.90154 13.8866 6.33301 13.8866H9.71836V11.2824H8.41634C7.65661 11.2824 6.928 10.9806 6.39079 10.4434C5.85358 9.90615 5.55177 9.17754 5.55177 8.41781C5.55177 7.65807 5.85358 6.92946 6.39079 6.39225C6.928 5.85504 7.65661 5.55324 8.41634 5.55324H9.71836V4.25118C9.71836 3.81972 10.0681 3.46995 10.4996 3.46995ZM8.41634 7.11571H9.71836V9.7199H8.41634C8.071 9.7199 7.73981 9.58272 7.49562 9.33853C7.25143 9.09434 7.11424 8.76314 7.11424 8.41781C7.11424 8.07247 7.25143 7.74127 7.49562 7.49708C7.73981 7.25289 8.071 7.11571 8.41634 7.11571ZM11.2808 13.8866V11.2824H12.583C12.9283 11.2824 13.2595 11.4196 13.5037 11.6637C13.7479 11.9079 13.8851 12.2391 13.8851 12.5845C13.8851 12.9298 13.7479 13.261 13.5037 13.5052C13.2595 13.7494 12.9283 13.8866 12.583 13.8866H11.2808Z" fill="#2F2E41"/>
</svg>
